<svg width="0" height="0" style="visibility: hidden; position: absolute;" aria-hidden="true">

    <symbol id="main-tel" viewBox="0 0 19.5 19.5" fill="none" xmlns="http://www.w3.org/2000/svg">
      <path d="M7.50295 2.25722C7.19922 1.4979 6.46381 1 5.646 1H2.89474C1.8483 1 1 1.84834 1 2.89478C1 11.7895 8.21078 19 17.1055 19C18.1519 19 19 18.1518 19 17.1053L18.9999 14.354C18.9999 13.5362 18.5019 12.8009 17.7426 12.4971L15.1071 11.4429C14.4251 11.1701 13.6485 11.293 13.0842 11.7633L12.4031 12.3307C11.6084 12.9929 10.44 12.94 9.70854 12.2085L7.79136 10.2915C7.05993 9.56007 7.00722 8.39154 7.66943 7.59688L8.23682 6.91597C8.7071 6.35163 8.83002 5.57493 8.55719 4.89286L7.50295 2.25722Z" stroke-linecap="round" stroke-linejoin="round"/>
    </symbol>
    <symbol id="arrow-main" viewBox="0 0 26 26" fill="none" xmlns="http://www.w3.org/2000/svg">
        <path d="M9.4 16.6L16.6 9.40002M16.6 9.40002H12.6002M16.6 9.40002L16.5998 13.4" stroke-linecap="round" stroke-linejoin="round"/>
        <rect x="1" y="1" width="24" height="24" rx="12" stroke-miterlimit="0" stroke-linecap="round" stroke-linejoin="bevel" stroke-dasharray="0.1 2"/>
    </symbol>
    <symbol id="work-1"  viewBox="0 0 58 58" xmlns="http://www.w3.org/2000/svg">
        <path fill-rule="evenodd" clip-rule="evenodd" d="M29.5592 18.1258C29.7585 17.9692 38.0804 11.4951 43.5808 17.8727C46.6004 21.3739 46.3444 25.0063 45.2239 28.5635L41.2816 39.8565C40.1289 43.783 39.307 44.9951 37.2874 46.701C36.0886 47.7135 34.7366 45.9646 33.3138 44.1239C32.0812 42.5293 30.7954 40.8658 29.5098 40.8697C28.203 40.8737 26.8965 42.5398 25.6465 44.1338C24.2048 45.9724 22.8383 47.715 21.6331 46.701C19.1996 44.6532 18.1324 41.8237 17.0169 37.2829C16.8022 36.4087 16.4755 35.3602 16.1153 34.2039C14.6044 29.3544 12.5028 22.6083 15.5853 18.8657C19.3919 14.2442 24.12 13.5002 29.5088 18.0887L29.5592 18.1258ZM26.9001 18.6004C25.0357 17.3193 23.4509 16.9118 22.1308 17.0157C20.5088 17.1432 18.8241 18.0794 17.1291 20.1373C15.8544 21.6849 15.7246 24.2994 16.4119 27.7151C16.7392 29.3418 17.2167 30.9892 17.6976 32.5539C17.8013 32.8915 17.9067 33.2298 18.0112 33.565C18.3755 34.7341 18.7283 35.8661 18.9592 36.8058C19.9804 40.9629 20.8687 43.1971 22.48 44.7712C22.8126 44.4619 23.2333 43.965 23.7899 43.2597C23.8766 43.1497 23.9666 43.0348 24.0593 42.9164C24.6295 42.1885 25.3048 41.3262 25.9937 40.6369C26.7255 39.9047 27.9352 38.8745 29.5038 38.8697C31.0796 38.8649 32.2861 39.9118 33.003 40.6389C33.6819 41.3276 34.3478 42.1901 34.9098 42.918C35.0017 43.037 35.0908 43.1524 35.1767 43.2629C35.7219 43.9638 36.1349 44.4586 36.4615 44.7681C37.1093 44.1824 37.5294 43.6934 37.8929 43.0853C38.3622 42.3003 38.7993 41.2118 39.3626 39.2931C39.372 39.2609 39.3823 39.229 39.3934 39.1973L43.3253 27.934C43.8394 26.2943 44.1005 24.797 43.9642 23.3899C43.8315 22.0193 43.3116 20.6229 42.0662 19.1789C40.0017 16.7851 37.4653 16.7489 35.0724 17.4904C33.8673 17.8638 32.7857 18.42 31.9936 18.8956C31.6964 19.074 31.4459 19.2375 31.2515 19.3701L35.0925 22.1943C35.5374 22.5215 35.6329 23.1474 35.3057 23.5923C34.9786 24.0373 34.3526 24.1328 33.9077 23.8056L28.4829 19.8168C28.4078 19.769 28.3352 19.7158 28.2657 19.6571L27.1076 18.8056C27.0267 18.7461 26.9574 18.6768 26.9001 18.6004ZM22.1293 45.0449L22.1332 45.043C22.1305 45.0443 22.1292 45.0449 22.1293 45.0449Z"/>
    </symbol>
    <symbol id="work-2" viewBox="0 0 58 58" xmlns="http://www.w3.org/2000/svg">
        <path fill-rule="evenodd" clip-rule="evenodd" d="M15.7317 14.4813C15.8011 13.6241 16.0244 12.8097 16.3744 12.0647H9.25C8.14543 12.0647 7.25 12.9633 7.25 14.0678V14.0678C7.25 14.6939 7.54317 15.2854 8.04218 15.6635L12.0833 18.7254V47.7686C12.0833 49.4254 13.4265 50.7686 15.0833 50.7686H42.9167C44.5735 50.7686 45.9167 49.4254 45.9167 47.7686V18.7679L50.4781 15.6958C51.0258 15.327 51.3542 14.7099 51.3542 14.0495V14.0495C51.3542 12.9533 50.4655 12.0647 49.3693 12.0647H29.5423C29.8922 12.8097 30.1155 13.6241 30.185 14.4813H47.9551L43.5 17.4819V46.3519C43.5 47.4565 42.6046 48.3519 41.5 48.3519H16.5C15.3954 48.3519 14.5 47.4565 14.5 46.3519V17.5245L10.4837 14.4813H15.7317Z"/>
        <path fill-rule="evenodd" clip-rule="evenodd" d="M24.167 32.4167C24.167 31.8644 23.7193 31.4167 23.167 31.4167H20.3337C19.7814 31.4167 19.3337 31.8644 19.3337 32.4167V35.25C19.3337 35.8023 19.7814 36.25 20.3337 36.25H23.167C23.7193 36.25 24.167 35.8023 24.167 35.25V32.4167ZM18.917 29C17.8124 29 16.917 29.8954 16.917 31V36.6667C16.917 37.7712 17.8124 38.6667 18.917 38.6667H24.5837C25.6882 38.6667 26.5837 37.7712 26.5837 36.6667V31C26.5837 29.8954 25.6882 29 24.5837 29H18.917Z"/>
        <path fill-rule="evenodd" clip-rule="evenodd" d="M38.6667 32.4167C38.6667 31.8644 38.219 31.4167 37.6667 31.4167H32.4167C31.8644 31.4167 31.4167 31.8644 31.4167 32.4167V48.3333H38.6667V32.4167ZM31 29C29.8954 29 29 29.8954 29 31V50.75H41.0833V31C41.0833 29.8954 40.1879 29 39.0833 29H31Z"/>
        <path fill-rule="evenodd" clip-rule="evenodd" d="M30.208 14.5C30.208 18.5041 26.9621 21.75 22.958 21.75C18.954 21.75 15.708 18.5041 15.708 14.5C15.708 10.4959 18.954 7.25 22.958 7.25C26.9621 7.25 30.208 10.4959 30.208 14.5ZM22.958 10.875C23.6254 10.875 24.1663 11.416 24.1663 12.0833V13.2917H25.3747C26.042 13.2917 26.583 13.8327 26.583 14.5V14.5C26.583 15.1673 26.042 15.7083 25.3747 15.7083H24.1663V16.9167C24.1663 17.584 23.6254 18.125 22.958 18.125V18.125C22.2907 18.125 21.7497 17.584 21.7497 16.9167V15.7083H20.5413C19.874 15.7083 19.333 15.1673 19.333 14.5V14.5C19.333 13.8327 19.874 13.2917 20.5413 13.2917H21.7497V12.0833C21.7497 11.416 22.2907 10.875 22.958 10.875V10.875Z"/>
    </symbol>
    <symbol id="work-3" width="58" height="58" viewBox="0 0 58 58" xmlns="http://www.w3.org/2000/svg">
        <path fill-rule="evenodd" clip-rule="evenodd" d="M15.95 25.375C15.95 25.375 16.9364 25.2418 18.3667 24.8604C22.1391 23.8543 29 21.1214 29 14.5504C29 10.5185 25.7316 7.25 21.6996 7.25H14.5504C10.5185 7.25 7.25 10.5185 7.25 14.5504C7.25 18.5822 10.5185 21.8507 14.5504 21.8507H15.95V25.375ZM18.3667 19.434H14.5504C11.8532 19.434 9.66667 17.2475 9.66667 14.5504C9.66667 11.8532 11.8532 9.66667 14.5504 9.66667H21.6996C24.3969 9.66667 26.5833 11.8532 26.5833 14.5504C26.5833 17.6714 24.3989 19.7502 21.4252 21.1844C20.3713 21.6926 19.3034 22.0726 18.3667 22.3501V19.434Z"/>
        <path fill-rule="evenodd" clip-rule="evenodd" d="M17.5208 38.6667C20.1913 38.6667 22.3542 36.5038 22.3542 33.8333C22.3542 31.1629 20.1913 29 17.5208 29C14.8504 29 12.6875 31.1629 12.6875 33.8333C12.6875 36.5038 14.8504 38.6667 17.5208 38.6667ZM19.9375 33.8333C19.9375 35.169 18.8565 36.25 17.5208 36.25C16.1851 36.25 15.1042 35.169 15.1042 33.8333C15.1042 32.4976 16.1851 31.4167 17.5208 31.4167C18.8565 31.4167 19.9375 32.4976 19.9375 33.8333Z"/>
        <path fill-rule="evenodd" clip-rule="evenodd" d="M7.25 46.239C7.25 42.8104 14.0929 41.0834 17.5208 41.0834C20.9488 41.0834 27.7917 42.8104 27.7917 46.239V50.75H7.25V46.239ZM9.66667 48.3334V46.239C9.66664 46.2281 9.66658 46.2027 9.69803 46.1418C9.73646 46.0674 9.82535 45.9357 10.0153 45.7597C10.4132 45.391 11.0801 44.9882 12.0017 44.6176C13.8491 43.8746 16.1102 43.5 17.5208 43.5C18.9314 43.5 21.1926 43.8746 23.04 44.6176C23.9615 44.9882 24.6284 45.391 25.0264 45.7597C25.2163 45.9357 25.3052 46.0674 25.3436 46.1418C25.3751 46.2027 25.375 46.2281 25.375 46.239V48.3334H9.66667Z"/>
        <path fill-rule="evenodd" clip-rule="evenodd" d="M45.3122 33.8333C45.3122 36.5038 43.1493 38.6667 40.4788 38.6667C37.8084 38.6667 35.6455 36.5038 35.6455 33.8333C35.6455 31.1629 37.8084 29 40.4788 29C43.1493 29 45.3122 31.1629 45.3122 33.8333ZM40.4788 36.25C41.8145 36.25 42.8955 35.169 42.8955 33.8333C42.8955 32.4976 41.8145 31.4167 40.4788 31.4167C39.1431 31.4167 38.0622 32.4976 38.0622 33.8333C38.0622 35.169 39.1431 36.25 40.4788 36.25Z"/>
        <path fill-rule="evenodd" clip-rule="evenodd" d="M30.208 46.239C30.208 42.8104 37.0509 41.0834 40.4788 41.0834C43.9068 41.0834 50.7497 42.8104 50.7497 46.239V50.75H30.208V46.239ZM32.6247 48.3334V46.239C32.6247 46.2281 32.6246 46.2027 32.6561 46.1418C32.6945 46.0674 32.7833 45.9357 32.9733 45.7597C33.3713 45.391 34.0382 44.9882 34.9597 44.6176C36.8071 43.8746 39.0682 43.5 40.4788 43.5C41.8894 43.5 44.1506 43.8746 45.998 44.6176C46.9195 44.9882 47.5864 45.391 47.9844 45.7597C48.1744 45.9357 48.2632 46.0674 48.3016 46.1418C48.3331 46.2027 48.333 46.2281 48.333 46.239V48.3334H32.6247Z"/>
        <path fill-rule="evenodd" clip-rule="evenodd" d="M40.6003 25.9862C42.0152 26.4312 43.017 26.5834 43.017 26.5834V23.059H43.4499C47.4819 23.059 50.7503 19.7906 50.7503 15.7588C50.7503 11.7269 47.4819 8.45837 43.4499 8.45837H38.7174C34.6854 8.45837 31.417 11.7269 31.417 15.7588C31.417 22.158 37.2008 24.9172 40.6003 25.9862ZM43.4499 20.6424H40.6003V23.4365C39.8961 23.1826 39.1283 22.857 38.3694 22.4453C35.8528 21.0799 33.8337 19.0298 33.8337 15.7588C33.8337 13.0615 36.0201 10.875 38.7174 10.875H43.4499C46.1472 10.875 48.3337 13.0615 48.3337 15.7588C48.3337 18.4559 46.1472 20.6424 43.4499 20.6424Z"/>
    </symbol>
    <symbol id="work-4" width="58" height="58" viewBox="0 0 58 58" xmlns="http://www.w3.org/2000/svg">
        <path d="M14.4997 12.0833C15.8344 12.0833 16.9163 11.0014 16.9163 9.66667C16.9163 8.33198 15.8344 7.25 14.4997 7.25C13.6051 7.25 12.8242 7.73599 12.4064 8.45833H12.083C10.081 8.45833 8.45801 10.0813 8.45801 12.0833V22.9583H10.8747V12.0833C10.8747 11.416 11.4157 10.875 12.083 10.875H12.4064C12.8242 11.5973 13.6051 12.0833 14.4997 12.0833Z"/>
        <path fill-rule="evenodd" clip-rule="evenodd" d="M12.2774 22.9583H10.8755H8.45881C7.79147 22.9583 7.24481 23.5005 7.30537 24.1651C7.5863 27.2478 8.93693 30.1503 11.1436 32.357C12.7617 33.9751 14.754 35.1329 16.9171 35.7461V38.6667C16.9171 40.2452 17.9261 41.5881 19.3343 42.0855C19.3858 46.8796 23.2881 50.75 28.0942 50.75C32.9325 50.75 36.8546 46.8279 36.8546 41.9896V37.1563C36.8546 34.6537 38.8833 32.625 41.3859 32.625C43.8885 32.625 45.9171 34.6537 45.9171 37.1563V40.0813C44.5092 40.5789 43.5005 41.9217 43.5005 43.5C43.5005 45.5021 45.1234 47.125 47.1255 47.125C49.1276 47.125 50.7505 45.5021 50.7505 43.5C50.7505 41.9217 49.7418 40.5789 48.3338 40.0813V37.1563C48.3338 33.3191 45.2231 30.2083 41.3859 30.2083C37.5487 30.2083 34.438 33.3191 34.438 37.1563V41.9896C34.438 45.4931 31.5978 48.3333 28.0942 48.3333C24.6226 48.3333 21.8023 45.5446 21.7512 42.0852C23.1588 41.5873 24.1671 40.2448 24.1671 38.6667V35.7461C26.3303 35.1329 28.3227 33.9751 29.9408 32.357C32.1475 30.1503 33.498 27.2478 33.779 24.1651C33.8396 23.5005 33.2928 22.9583 32.6255 22.9583V12.0833C32.6255 10.0813 31.0026 8.45833 29.0005 8.45833H28.6771C28.2593 7.73599 27.4783 7.25 26.5838 7.25C25.2491 7.25 24.1671 8.33198 24.1671 9.66667C24.1671 11.0014 25.2491 12.0833 26.5838 12.0833C27.4783 12.0833 28.2593 11.5973 28.6771 10.875H29.0005C29.6678 10.875 30.2088 11.416 30.2088 12.0833V22.9583H28.807C28.1397 22.9583 27.6092 23.5032 27.4955 24.1609C27.249 25.586 26.5683 26.9116 25.5318 27.948C24.2086 29.2714 22.4137 30.0149 20.5421 30.0149C18.6707 30.0149 16.8758 29.2714 15.5525 27.948C14.5161 26.9116 13.8353 25.586 13.5888 24.1609C13.4751 23.5032 12.9446 22.9583 12.2774 22.9583ZM29.7019 25.375H31.1453C30.6937 27.3562 29.6918 29.1884 28.232 30.6482C26.1926 32.6876 23.4264 33.8333 20.5421 33.8333C17.658 33.8333 14.8919 32.6876 12.8524 30.6482C11.3926 29.1884 10.3907 27.3562 9.93905 25.375H11.3824C11.8062 26.981 12.6488 28.4621 13.8436 29.6569C15.6202 31.4335 18.0298 32.4315 20.5421 32.4315C23.0546 32.4315 25.4642 31.4335 27.2408 29.6569C28.4356 28.4621 29.2782 26.981 29.7019 25.375ZM47.1255 42.2917C47.7928 42.2917 48.3338 42.8326 48.3338 43.5C48.3338 44.1674 47.7928 44.7083 47.1255 44.7083C46.4581 44.7083 45.9171 44.1674 45.9171 43.5C45.9171 42.8326 46.4581 42.2917 47.1255 42.2917ZM21.7505 36.25V38.6667C21.7505 39.334 21.2095 39.875 20.5421 39.875C19.8748 39.875 19.3338 39.334 19.3338 38.6667V36.25H21.7505Z"/>
    </symbol>
    <symbol id="work-5" width="58" height="58" viewBox="0 0 58 58" xmlns="http://www.w3.org/2000/svg">
        <path fill-rule="evenodd" clip-rule="evenodd" d="M9.66699 51.9583C9.66699 51.291 10.208 50.75 10.8753 50.75H47.1253C47.7927 50.75 48.3337 51.291 48.3337 51.9583C48.3337 52.6257 47.7927 53.1667 47.1253 53.1667H10.8753C10.208 53.1667 9.66699 52.6257 9.66699 51.9583Z"/>
        <path fill-rule="evenodd" clip-rule="evenodd" d="M21.75 9.66667H11.875C11.3227 9.66667 10.875 9.21895 10.875 8.66667V8.25C10.875 7.69772 11.3227 7.25 11.875 7.25H21.75V9.66667Z"/>
        <path fill-rule="evenodd" clip-rule="evenodd" d="M47.1253 8.66667C47.1253 9.21895 46.6776 9.66667 46.1253 9.66667H36.042C35.4897 9.66667 35.042 9.21895 35.042 8.66667V8.25C35.042 7.69772 35.4897 7.25 36.042 7.25H46.1253C46.6776 7.25 47.1253 7.69772 47.1253 8.25V8.66667Z"/>
        <path fill-rule="evenodd" clip-rule="evenodd" d="M38.6663 44.9167C38.6663 45.469 38.2186 45.9167 37.6663 45.9167H20.333C19.7807 45.9167 19.333 45.469 19.333 44.9167V44.5C19.333 43.9477 19.7807 43.5 20.333 43.5H37.6663C38.2186 43.5 38.6663 43.9477 38.6663 44.5V44.9167Z"/>
        <path fill-rule="evenodd" clip-rule="evenodd" d="M29.2087 8.45837C29.7609 8.45837 30.2087 8.90609 30.2087 9.45837V17.125C30.2087 17.6773 29.7609 18.125 29.2087 18.125H28.792C28.2397 18.125 27.792 17.6773 27.792 17.125V9.45838C27.792 8.90609 28.2397 8.45837 28.792 8.45837H29.2087Z"/>
        <path fill-rule="evenodd" clip-rule="evenodd" d="M24.167 13.0834C24.167 12.5311 24.6147 12.0834 25.167 12.0834H32.8337C33.3859 12.0834 33.8337 12.5311 33.8337 13.0834V13.5C33.8337 14.0523 33.3859 14.5 32.8337 14.5H25.167C24.6147 14.5 24.167 14.0523 24.167 13.5V13.0834Z"/>
        <path fill-rule="evenodd" clip-rule="evenodd" d="M35.042 7.25004H22.9587V19.3334H35.042V7.25004ZM22.9587 4.83337H35.042C36.3767 4.83337 37.4587 5.91535 37.4587 7.25004V19.3334C37.4587 20.6681 36.3767 21.75 35.042 21.75H22.9587C21.6239 21.75 20.542 20.6681 20.542 19.3334V7.25004C20.542 5.91535 21.6239 4.83337 22.9587 4.83337Z"/>
        <path fill-rule="evenodd" clip-rule="evenodd" d="M13.292 50.75V8.45837H15.7087V50.75H13.292Z"/>
        <path fill-rule="evenodd" clip-rule="evenodd" d="M42.292 50.75V8.45837H44.7087V50.75H42.292Z"/>
        <path fill-rule="evenodd" clip-rule="evenodd" d="M35.042 50.75V45.9166H37.4587V50.75H35.042Z"/>
        <path fill-rule="evenodd" clip-rule="evenodd" d="M20.542 50.75V45.9166H22.9587V50.75H20.542Z"/>
        <path d="M19.333 25.1666C19.333 24.6143 19.7807 24.1666 20.333 24.1666H23.1663C23.7186 24.1666 24.1663 24.6143 24.1663 25.1666V26.7916C24.1663 27.3439 23.7186 27.7916 23.1663 27.7916H20.333C19.7807 27.7916 19.333 27.3439 19.333 26.7916V25.1666Z"/>
        <path d="M19.333 31.2084C19.333 30.6561 19.7807 30.2084 20.333 30.2084H23.1663C23.7186 30.2084 24.1663 30.6561 24.1663 31.2084V32.8334C24.1663 33.3857 23.7186 33.8334 23.1663 33.8334H20.333C19.7807 33.8334 19.333 33.3857 19.333 32.8334V31.2084Z"/>
        <path d="M19.333 37.25C19.333 36.6977 19.7807 36.25 20.333 36.25H23.1663C23.7186 36.25 24.1663 36.6977 24.1663 37.25V38.875C24.1663 39.4273 23.7186 39.875 23.1663 39.875H20.333C19.7807 39.875 19.333 39.4273 19.333 38.875V37.25Z"/>
        <path d="M26.583 25.1666C26.583 24.6143 27.0307 24.1666 27.583 24.1666H30.4163C30.9686 24.1666 31.4163 24.6143 31.4163 25.1666V26.7916C31.4163 27.3439 30.9686 27.7916 30.4163 27.7916H27.583C27.0307 27.7916 26.583 27.3439 26.583 26.7916V25.1666Z"/>
        <path d="M26.583 31.2084C26.583 30.6561 27.0307 30.2084 27.583 30.2084H30.4163C30.9686 30.2084 31.4163 30.6561 31.4163 31.2084V32.8334C31.4163 33.3857 30.9686 33.8334 30.4163 33.8334H27.583C27.0307 33.8334 26.583 33.3857 26.583 32.8334V31.2084Z"/>
        <path d="M26.583 37.25C26.583 36.6977 27.0307 36.25 27.583 36.25H30.4163C30.9686 36.25 31.4163 36.6977 31.4163 37.25V38.875C31.4163 39.4273 30.9686 39.875 30.4163 39.875H27.583C27.0307 39.875 26.583 39.4273 26.583 38.875V37.25Z"/>
        <path d="M33.833 25.1666C33.833 24.6143 34.2807 24.1666 34.833 24.1666H37.6663C38.2186 24.1666 38.6663 24.6143 38.6663 25.1666V26.7916C38.6663 27.3439 38.2186 27.7916 37.6663 27.7916H34.833C34.2807 27.7916 33.833 27.3439 33.833 26.7916V25.1666Z"/>
        <path d="M33.833 31.2084C33.833 30.6561 34.2807 30.2084 34.833 30.2084H37.6663C38.2186 30.2084 38.6663 30.6561 38.6663 31.2084V32.8334C38.6663 33.3857 38.2186 33.8334 37.6663 33.8334H34.833C34.2807 33.8334 33.833 33.3857 33.833 32.8334V31.2084Z"/>
        <path d="M33.833 37.25C33.833 36.6977 34.2807 36.25 34.833 36.25H37.6663C38.2186 36.25 38.6663 36.6977 38.6663 37.25V38.875C38.6663 39.4273 38.2186 39.875 37.6663 39.875H34.833C34.2807 39.875 33.833 39.4273 33.833 38.875V37.25Z"/>
    </symbol>
    <symbol id="work-6" width="58" height="58" viewBox="0 0 58 58" xmlns="http://www.w3.org/2000/svg">
        <path fill-rule="evenodd" clip-rule="evenodd" d="M28.9997 17.1364C18.3663 12.3909 8.45801 22.4089 4.83301 29C8.45801 34.2727 18.3663 43.5 28.9997 43.5C39.633 43.5 49.5413 34.2727 53.1663 29C49.5413 22.409 39.8747 11.8637 28.9997 17.1364ZM50.2717 28.8501C48.5027 26.0472 45.7597 22.8148 42.4673 20.6341C38.7109 18.1462 34.4957 17.1574 30.0539 19.3109C29.4123 19.622 28.6661 19.6339 28.0148 19.3431C23.6736 17.4058 19.4128 18.3982 15.5941 20.8504C12.2724 22.9836 9.49645 26.11 7.73214 28.8556C9.50956 31.1036 12.289 33.8903 15.6692 36.2441C19.7077 39.0561 24.3618 41.0833 28.9997 41.0833C33.6375 41.0833 38.2916 39.0561 42.3301 36.2441C45.7132 33.8883 48.4944 31.0989 50.2717 28.8501Z"/>
        <path fill-rule="evenodd" clip-rule="evenodd" d="M15.1708 28.9493C18.9505 30.1984 23.8578 31.4166 29 31.4166C34.0706 31.4166 38.9128 30.1633 42.6958 28.9068C38.8543 27.6853 33.9132 26.5833 29 26.5833C24.0284 26.5833 19.029 27.7116 15.1708 28.9493ZM10.9157 27.911C15.0408 26.256 21.9943 24.1666 29 24.1666C35.8882 24.1666 42.7259 26.1866 46.8743 27.8275C47.8754 28.2235 47.8141 29.6324 46.806 30.0098C42.792 31.5121 36.1526 33.8333 29 33.8333C21.7027 33.8333 14.9395 31.5443 10.9536 29.9979C9.98159 29.6208 9.94805 28.2992 10.9157 27.911Z"/>
    </symbol>
</svg>